<?xml version="1.0" encoding="UTF-8"?>
<svg xmlns="http://www.w3.org/2000/svg" id="Calque_2" viewBox="0 0 452.89 115.01">
  <defs>
    <style>.cls-1{fill:#231932;}</style>
  </defs>
  <g id="Calque_1-2">
    <path class="cls-1" d="M151.81,59c-3.46-1.33-5.89-2.69-7.28-4.08-1.34-1.3-2.4-2.85-3.12-4.57-.72-1.72-1.08-3.57-1.07-5.43-.03-2.69,.75-5.33,2.23-7.58,1.53-2.3,3.51-4.26,5.82-5.77,2.49-1.62,5.22-2.86,8.08-3.66,2.92-.86,5.95-1.29,9-1.3,9.2,0,17.09,3.7,23.67,11.09,.78,.98,1.19,2.21,1.16,3.47,.02,.76-.11,1.52-.39,2.22-.28,.71-.7,1.35-1.24,1.89-.54,.54-1.18,.96-1.89,1.24s-1.46,.41-2.22,.39c-1.09,.02-2.15-.33-3-1-.84-.67-1.64-1.4-2.4-2.16-1.77-1.82-3.9-3.26-6.26-4.23-2.35-.97-4.88-1.44-7.42-1.39-5.29,0-9.52,1.62-12.69,4.85-.3,.33-.54,.71-.69,1.13s-.22,.86-.19,1.3c-.03,.46,.1,.92,.36,1.3,.26,.38,.64,.66,1.08,.8l25.87,8.49c3.61,1.4,6,2.76,7.28,4.08h-.05c1.34,1.3,2.4,2.85,3.12,4.57,.72,1.72,1.08,3.57,1.07,5.43,.04,2.7-.74,5.36-2.23,7.61-1.54,2.29-3.52,4.25-5.82,5.76-2.48,1.64-5.2,2.88-8.06,3.67-2.93,.84-5.96,1.27-9,1.27-9.26,0-17.15-3.67-23.66-11-.8-1.02-1.23-2.28-1.22-3.58-.02-.76,.11-1.52,.39-2.22,.28-.71,.7-1.35,1.24-1.89,.54-.54,1.18-.96,1.89-1.24,.71-.28,1.46-.41,2.22-.39,1.13-.03,2.23,.35,3.09,1.08,.85,.71,1.62,1.4,2.32,2.07,1.78,1.82,3.92,3.26,6.28,4.23,2.36,.97,4.9,1.44,7.45,1.39,5.26,0,9.49-1.67,12.69-5,.55-.62,.85-1.43,.83-2.26,.02-.47-.12-.94-.39-1.33-.27-.39-.66-.68-1.1-.83l-25.75-8.42Z"></path>
    <path class="cls-1" d="M210.5,82.6c.03,.78-.09,1.55-.37,2.28-.27,.73-.69,1.39-1.23,1.95-.54,.56-1.19,1.01-1.9,1.31-.72,.31-1.49,.46-2.26,.46s-1.55-.16-2.26-.46c-.72-.31-1.36-.75-1.9-1.31-.54-.56-.96-1.23-1.23-1.95-.28-.73-.4-1.5-.37-2.28V5.92c-.01-.76,.13-1.52,.42-2.23,.29-.71,.72-1.35,1.26-1.88,.53-.53,1.16-.96,1.86-1.24s1.44-.44,2.2-.44,1.5,.15,2.19,.44,1.33,.71,1.86,1.24c1.1,1.09,1.73,2.56,1.74,4.11v26.48c4.01-2.98,8.72-4.87,13.68-5.46,4.96-.6,9.99,.11,14.59,2.06,3.41,1.47,6.53,3.55,9.18,6.15,2.67,2.62,4.8,5.73,6.29,9.16,1.55,3.54,2.34,7.36,2.32,11.22v27.07c0,.77-.16,1.52-.46,2.23-.3,.71-.73,1.34-1.28,1.88-.53,.53-1.16,.96-1.86,1.24-.7,.29-1.44,.44-2.19,.44s-1.5-.15-2.2-.44c-.7-.29-1.33-.71-1.86-1.24-.55-.53-.98-1.17-1.28-1.88-.29-.71-.44-1.47-.42-2.23v-27.09c.01-2.3-.46-4.57-1.38-6.67-1.78-4.14-5.07-7.43-9.21-9.21-2.11-.92-4.38-1.39-6.68-1.38-2.3-.02-4.58,.44-6.7,1.35-4.15,1.78-7.45,5.09-9.21,9.24-.9,2.11-1.36,4.38-1.35,6.67l.02,27.09Z"></path>
    <path class="cls-1" d="M315.47,82.65v-1.1c-2.7,2.18-5.74,3.89-9,5.08-3.33,1.19-6.84,1.78-10.37,1.76-4.06,.07-8.1-.69-11.85-2.24-3.76-1.55-7.15-3.85-9.99-6.76-2.92-2.83-5.23-6.22-6.79-9.98-1.56-3.76-2.33-7.79-2.26-11.86-.07-4.07,.7-8.1,2.26-11.86,1.56-3.76,3.87-7.15,6.79-9.98,2.87-2.87,6.27-5.14,10.02-6.7,3.75-1.55,7.76-2.35,11.82-2.35s8.07,.8,11.82,2.35c3.75,1.55,7.15,3.83,10.02,6.7,2.92,2.82,5.23,6.21,6.79,9.96,1.56,3.75,2.34,7.77,2.28,11.83v25.15c0,1.52-.61,2.98-1.68,4.06-1.08,1.08-2.54,1.68-4.06,1.68-.76,.01-1.52-.13-2.23-.42-.71-.29-1.35-.72-1.88-1.26-.54-.53-.98-1.16-1.27-1.85-.29-.7-.43-1.45-.42-2.21Zm-19.36-44.51c-2.62-.02-5.21,.5-7.61,1.54-2.29,.98-4.37,2.4-6.13,4.17-1.74,1.78-3.13,3.86-4.11,6.15-1,2.37-1.51,4.92-1.51,7.5s.51,5.13,1.51,7.5c.97,2.29,2.37,4.38,4.11,6.15,1.76,1.77,3.84,3.19,6.13,4.17,2.4,1.02,4.98,1.54,7.59,1.54s5.18-.52,7.58-1.54c2.3-1,4.39-2.42,6.15-4.2,1.75-1.76,3.15-3.84,4.13-6.12,1-2.36,1.52-4.9,1.52-7.47s-.52-5.11-1.52-7.47c-.98-2.29-2.38-4.38-4.13-6.15-1.76-1.78-3.85-3.2-6.15-4.2-2.38-1.04-4.96-1.58-7.56-1.57h0Z"></path>
    <path class="cls-1" d="M366.72,88.39c-7.05,.12-13.92-2.29-19.36-6.78v27.52c.02,.76-.12,1.53-.41,2.23-.29,.71-.73,1.35-1.28,1.88-.54,.53-1.18,.95-1.89,1.23-.71,.28-1.46,.42-2.22,.4-.76,.02-1.52-.11-2.22-.39-.71-.28-1.35-.7-1.89-1.24-.54-.54-.96-1.18-1.24-1.89-.28-.71-.41-1.46-.38-2.22V57.5c-.07-4.06,.69-8.1,2.24-11.85,1.55-3.76,3.85-7.16,6.76-9.99,2.87-2.87,6.27-5.15,10.02-6.7,3.75-1.55,7.77-2.35,11.82-2.35s8.07,.8,11.82,2.35c3.75,1.55,7.15,3.83,10.02,6.7,2.92,2.84,5.23,6.24,6.79,10,1.53,3.76,2.32,7.78,2.3,11.84,.08,4.07-.68,8.11-2.24,11.87-1.56,3.76-3.88,7.15-6.81,9.97-2.87,2.92-6.3,5.23-10.07,6.82-3.74,1.51-7.74,2.27-11.77,2.23Zm-19.36-30.89c-.02,2.58,.5,5.13,1.51,7.5,1.95,4.64,5.62,8.34,10.24,10.32,2.4,1.02,4.98,1.54,7.58,1.54s5.18-.52,7.58-1.54c2.3-.99,4.39-2.42,6.16-4.2,1.75-1.76,3.15-3.84,4.13-6.12,1-2.36,1.52-4.9,1.52-7.47s-.52-5.11-1.52-7.47c-.98-2.29-2.38-4.38-4.13-6.15-1.77-1.78-3.86-3.21-6.16-4.2-2.4-1.02-4.98-1.54-7.58-1.54s-5.18,.52-7.58,1.54c-4.62,1.97-8.29,5.66-10.24,10.29-1.01,2.37-1.53,4.92-1.51,7.5Z"></path>
    <path class="cls-1" d="M417.74,32.35v1.1c2.7-2.17,5.74-3.89,9-5.08,3.33-1.19,6.84-1.78,10.37-1.76,1.74,0,3.49,.12,5.22,.33,1.75,.2,3.47,.6,5.13,1.19,1.44,.5,2.77,1.3,3.89,2.34,.51,.5,.92,1.1,1.18,1.77,.27,.67,.39,1.38,.36,2.09,0,.78-.15,1.55-.47,2.26-.3,.69-.72,1.31-1.24,1.85-.51,.54-1.13,.96-1.82,1.24-.71,.3-1.48,.45-2.26,.44-.84-.03-1.67-.24-2.43-.6-2.41-.94-4.98-1.41-7.56-1.38-2.6-.02-5.17,.5-7.55,1.52-4.64,1.95-8.33,5.64-10.29,10.28-1.02,2.39-1.54,4.96-1.52,7.56v25.15c0,1.52-.6,2.98-1.68,4.06-1.08,1.08-2.54,1.68-4.06,1.68-.76,.02-1.52-.13-2.23-.41-.71-.29-1.35-.72-1.88-1.27-.55-.52-.98-1.16-1.27-1.85-.29-.7-.43-1.45-.42-2.21V32.35c-.01-.76,.13-1.51,.42-2.21,.29-.7,.72-1.33,1.27-1.85,.53-.55,1.17-.98,1.88-1.27,.71-.29,1.46-.43,2.23-.41,1.52,0,2.98,.61,4.05,1.68,1.08,1.08,1.68,2.53,1.68,4.06h0Z"></path>
    <path class="cls-1" d="M76.63,34.17c-8,0-15.82,2.36-22.47,6.79-6.65,4.44-11.84,10.75-14.9,18.13-3.07,7.39-3.87,15.51-2.31,23.36,1.56,7.84,5.4,15.05,11.06,20.71,5.65,5.66,12.86,9.51,20.7,11.07,7.84,1.56,15.97,.76,23.36-2.3,7.39-3.06,13.7-8.24,18.14-14.89,4.44-6.65,6.81-14.47,6.81-22.46,0-10.71-4.26-20.98-11.83-28.56-7.57-7.58-17.84-11.84-28.55-11.85h0Zm0,71.63c-6.17,0-12.21-1.83-17.34-5.26-5.13-3.43-9.14-8.31-11.5-14.01-2.36-5.7-2.98-11.98-1.78-18.04,1.2-6.06,4.18-11.62,8.54-15.99,4.37-4.37,9.93-7.34,15.99-8.54,6.06-1.2,12.33-.59,18.04,1.78,5.7,2.36,10.58,6.36,14.01,11.5,3.43,5.13,5.26,11.17,5.26,17.34,0,8.28-3.29,16.22-9.14,22.08-5.85,5.86-13.8,9.14-22.08,9.14Z"></path>
    <path class="cls-1" d="M40.43,0c-7.99,0-15.81,2.37-22.46,6.81C11.32,11.25,6.14,17.56,3.08,24.94,.02,32.33-.78,40.46,.78,48.3c1.56,7.84,5.41,15.04,11.06,20.7,5.65,5.65,12.85,9.5,20.7,11.06,7.84,1.56,15.97,.76,23.35-2.3,7.39-3.06,13.7-8.24,18.14-14.89,4.44-6.65,6.81-14.46,6.81-22.46,0-10.72-4.26-21-11.84-28.58C61.43,4.26,51.15,0,40.43,0h0Zm0,71.64c-6.17,0-12.21-1.83-17.34-5.26-5.13-3.43-9.14-8.31-11.5-14.01-2.36-5.7-2.98-11.98-1.78-18.04,1.2-6.06,4.18-11.62,8.54-15.99,4.37-4.37,9.93-7.34,15.99-8.54,6.06-1.2,12.33-.59,18.04,1.78,5.7,2.36,10.58,6.36,14.01,11.5,3.43,5.13,5.26,11.17,5.26,17.34,0,8.28-3.29,16.22-9.14,22.08s-13.8,9.14-22.08,9.14h0Z"></path>
    <path class="cls-1" d="M36.21,74.58c0,2.04,.15,4.07,.46,6.08,1.23,.11,2.49,.17,3.76,.17,5.82,0,11.57-1.26,16.87-3.69s10-5.97,13.79-10.38c3.8-4.41,6.6-9.59,8.21-15.19,1.61-5.59,2-11.47,1.13-17.23-1.24-.11-2.49-.17-3.76-.17-5.31,0-10.57,1.04-15.48,3.06-4.91,2.03-9.37,5-13.13,8.76-3.76,3.75-6.74,8.21-8.77,13.11-2.03,4.91-3.08,10.16-3.08,15.47h0Z"></path>
    <path class="cls-1" d="M151.81,59c-3.46-1.33-5.89-2.69-7.28-4.08-1.34-1.3-2.4-2.85-3.12-4.57-.72-1.72-1.08-3.57-1.07-5.43-.03-2.69,.75-5.33,2.23-7.58,1.53-2.3,3.51-4.26,5.82-5.77,2.49-1.62,5.22-2.86,8.08-3.66,2.92-.86,5.95-1.29,9-1.3,9.2,0,17.09,3.7,23.67,11.09,.78,.98,1.19,2.21,1.16,3.47,.02,.76-.11,1.52-.39,2.22-.28,.71-.7,1.35-1.24,1.89-.54,.54-1.18,.96-1.89,1.24s-1.46,.41-2.22,.39c-1.09,.02-2.15-.33-3-1-.84-.67-1.64-1.4-2.4-2.16-1.77-1.82-3.9-3.26-6.26-4.23-2.35-.97-4.88-1.44-7.42-1.39-5.29,0-9.52,1.62-12.69,4.85-.3,.33-.54,.71-.69,1.13s-.22,.86-.19,1.3c-.03,.46,.1,.92,.36,1.3,.26,.38,.64,.66,1.08,.8l25.87,8.49c3.61,1.4,6,2.76,7.28,4.08h-.05c1.34,1.3,2.4,2.85,3.12,4.57,.72,1.72,1.08,3.57,1.07,5.43,.04,2.7-.74,5.36-2.23,7.61-1.54,2.29-3.52,4.25-5.82,5.76-2.48,1.64-5.2,2.88-8.06,3.67-2.93,.84-5.96,1.27-9,1.27-9.26,0-17.15-3.67-23.66-11-.8-1.02-1.23-2.28-1.22-3.58-.02-.76,.11-1.52,.39-2.22,.28-.71,.7-1.35,1.24-1.89,.54-.54,1.18-.96,1.89-1.24,.71-.28,1.46-.41,2.22-.39,1.13-.03,2.23,.35,3.09,1.08,.85,.71,1.62,1.4,2.32,2.07,1.78,1.82,3.92,3.26,6.28,4.23,2.36,.97,4.9,1.44,7.45,1.39,5.26,0,9.49-1.67,12.69-5,.55-.62,.85-1.43,.83-2.26,.02-.47-.12-.94-.39-1.33-.27-.39-.66-.68-1.1-.83l-25.75-8.42Z"></path>
    <path class="cls-1" d="M210.5,82.6c.03,.78-.09,1.55-.37,2.28-.27,.73-.69,1.39-1.23,1.95-.54,.56-1.19,1.01-1.9,1.31-.72,.31-1.49,.46-2.26,.46s-1.55-.16-2.26-.46c-.72-.31-1.36-.75-1.9-1.31-.54-.56-.96-1.23-1.23-1.95-.28-.73-.4-1.5-.37-2.28V5.92c-.01-.76,.13-1.52,.42-2.23,.29-.71,.72-1.35,1.26-1.88,.53-.53,1.16-.96,1.86-1.24s1.44-.44,2.2-.44,1.5,.15,2.19,.44,1.33,.71,1.86,1.24c1.1,1.09,1.73,2.56,1.74,4.11v26.48c4.01-2.98,8.72-4.87,13.68-5.46,4.96-.6,9.99,.11,14.59,2.06,3.41,1.47,6.53,3.55,9.18,6.15,2.67,2.62,4.8,5.73,6.29,9.16,1.55,3.54,2.34,7.36,2.32,11.22v27.07c0,.77-.16,1.52-.46,2.23-.3,.71-.73,1.34-1.28,1.88-.53,.53-1.16,.96-1.86,1.24-.7,.29-1.44,.44-2.19,.44s-1.5-.15-2.2-.44c-.7-.29-1.33-.71-1.86-1.24-.55-.53-.98-1.17-1.28-1.88-.29-.71-.44-1.47-.42-2.23v-27.09c.01-2.3-.46-4.57-1.38-6.67-1.78-4.14-5.07-7.43-9.21-9.21-2.11-.92-4.38-1.39-6.68-1.38-2.3-.02-4.58,.44-6.7,1.35-2.05,.88-3.91,2.14-5.49,3.72-1.58,1.58-2.85,3.46-3.72,5.52-.9,2.11-1.36,4.38-1.35,6.67l.02,27.09Z"></path>
    <path class="cls-1" d="M315.47,82.65v-1.1c-2.7,2.18-5.74,3.89-9,5.08-3.33,1.19-6.84,1.78-10.37,1.76-4.06,.07-8.1-.69-11.85-2.24-3.76-1.55-7.15-3.85-9.99-6.76-2.92-2.83-5.23-6.22-6.79-9.98-1.56-3.76-2.33-7.79-2.26-11.86-.07-4.07,.7-8.1,2.26-11.86,1.56-3.76,3.87-7.15,6.79-9.98,2.87-2.87,6.27-5.14,10.02-6.7,3.75-1.55,7.76-2.35,11.82-2.35s8.07,.8,11.82,2.35c3.75,1.55,7.15,3.83,10.02,6.7,2.92,2.82,5.23,6.21,6.79,9.96,1.56,3.75,2.34,7.77,2.28,11.83v25.15c0,1.52-.61,2.98-1.68,4.06-1.08,1.08-2.54,1.68-4.06,1.68-.76,.01-1.52-.13-2.23-.42-.71-.29-1.35-.72-1.88-1.26-.54-.53-.98-1.16-1.27-1.85-.29-.7-.43-1.45-.42-2.21Zm-19.36-44.51c-2.62-.02-5.21,.5-7.61,1.54-2.29,.98-4.37,2.4-6.13,4.17-1.74,1.78-3.13,3.86-4.11,6.15-1,2.37-1.51,4.92-1.51,7.5s.51,5.13,1.51,7.5c.97,2.29,2.37,4.38,4.11,6.15,1.76,1.77,3.84,3.19,6.13,4.17,2.4,1.02,4.98,1.54,7.59,1.54s5.18-.52,7.58-1.54c2.3-1,4.39-2.42,6.15-4.2,1.75-1.76,3.15-3.84,4.13-6.12,1-2.36,1.52-4.9,1.52-7.47s-.52-5.11-1.52-7.47c-.98-2.29-2.38-4.38-4.13-6.16-1.77-1.77-3.85-3.19-6.15-4.19-2.38-1.04-4.96-1.58-7.56-1.57h0Z"></path>
    <path class="cls-1" d="M366.72,88.39c-7.05,.12-13.92-2.29-19.36-6.78v27.52c.02,.76-.12,1.53-.41,2.23-.29,.71-.73,1.35-1.28,1.88-.54,.53-1.18,.95-1.89,1.23-.71,.28-1.46,.42-2.22,.4-.76,.02-1.52-.11-2.22-.39-.71-.28-1.35-.7-1.89-1.24-.54-.54-.96-1.18-1.24-1.89-.28-.71-.41-1.46-.38-2.22V57.5c-.07-4.06,.69-8.1,2.24-11.85,1.55-3.76,3.85-7.16,6.76-9.99,2.87-2.87,6.27-5.15,10.02-6.7,3.75-1.55,7.77-2.35,11.82-2.35s8.07,.8,11.82,2.35c3.75,1.55,7.15,3.83,10.02,6.7,2.92,2.84,5.23,6.24,6.79,10,1.53,3.76,2.32,7.78,2.3,11.84,.08,4.07-.68,8.11-2.24,11.87-1.56,3.76-3.88,7.15-6.81,9.97-2.87,2.92-6.3,5.23-10.07,6.82-3.74,1.51-7.74,2.27-11.77,2.23Zm-19.36-30.89c-.02,2.58,.5,5.13,1.51,7.5,1.95,4.64,5.62,8.34,10.24,10.32,2.4,1.02,4.98,1.54,7.58,1.54s5.18-.52,7.58-1.54c2.3-.99,4.39-2.42,6.16-4.2,1.75-1.76,3.15-3.84,4.13-6.12,1-2.36,1.52-4.9,1.52-7.47s-.52-5.11-1.52-7.47c-.98-2.29-2.38-4.38-4.13-6.16-1.77-1.78-3.86-3.2-6.16-4.19-2.4-1.02-4.98-1.54-7.58-1.54s-5.18,.52-7.58,1.54c-4.62,1.97-8.29,5.66-10.24,10.29-1.01,2.37-1.53,4.92-1.51,7.5Z"></path>
    <path class="cls-1" d="M417.74,32.35v1.1c2.7-2.17,5.74-3.89,9-5.08,3.33-1.19,6.84-1.78,10.37-1.76,1.74,0,3.49,.12,5.22,.33,1.75,.2,3.47,.6,5.13,1.19,1.44,.5,2.77,1.3,3.89,2.34,.51,.5,.92,1.1,1.18,1.77,.27,.67,.39,1.38,.36,2.09,0,.78-.15,1.55-.47,2.26-.3,.69-.72,1.31-1.24,1.85-.51,.54-1.13,.96-1.82,1.24-.71,.3-1.48,.45-2.26,.44-.84-.03-1.67-.24-2.43-.6-2.41-.94-4.98-1.41-7.56-1.38-2.59-.02-5.16,.49-7.55,1.51-4.64,1.96-8.33,5.65-10.29,10.29-1.02,2.39-1.54,4.96-1.52,7.56v25.15c0,1.52-.6,2.98-1.68,4.06-1.08,1.08-2.54,1.68-4.06,1.68-.76,.02-1.52-.13-2.23-.41-.71-.29-1.35-.72-1.88-1.27-.55-.52-.98-1.16-1.27-1.85-.29-.7-.43-1.45-.42-2.21V32.35c-.01-.76,.13-1.51,.42-2.21,.29-.7,.72-1.33,1.27-1.85,.53-.55,1.17-.98,1.88-1.27,.71-.29,1.46-.43,2.23-.41,1.52,0,2.98,.61,4.05,1.68,1.08,1.08,1.68,2.53,1.68,4.06h0Z"></path>
  </g>
</svg>
