<?xml version="1.0" encoding="UTF-8"?>
<!-- Generator: Adobe Illustrator 26.3.0, SVG Export Plug-In . SVG Version: 6.00 Build 0)  -->
<svg xmlns="http://www.w3.org/2000/svg" xmlns:xlink="http://www.w3.org/1999/xlink" version="1.1" id="Calque_1" x="0px" y="0px" viewBox="0 0 382.8 56.3" style="enable-background:new 0 0 382.8 56.3;" xml:space="preserve">
<style type="text/css">
	.st0{fill:#231932;}
</style>
<path class="st0" d="M139.8,14v20.5c0,6.5-5.5,8.2-8.4,8.2c-2.5,0-7.6-1.9-7.6-7.6V14h-6.4v20.5c0,6.5-5.5,8.2-8.4,8.2  c-2.5,0-7.6-1.9-7.6-7.6V14h-6.4v21.1c-0.1,4.1,1.7,8,4.8,10.6c2.6,2.2,5.8,3.4,9.2,3.4c3.4,0,6.8-1.1,9.5-3.2  c0.7-0.6,1.4-1.2,2-1.9c0.5,0.6,1.1,1.2,1.7,1.7c2.6,2.2,5.8,3.4,9.2,3.4c3.4,0,6.8-1.1,9.5-3.2c3.5-2.7,5.5-7,5.3-11.4V14H139.8z"></path>
<path class="st0" d="M368.8,13c-3.4,0-6.8,1.1-9.5,3.2c-0.7,0.6-1.4,1.2-2,1.9c-2.7-3.2-6.7-5.1-10.9-5.1c-3.4,0-6.8,1.1-9.5,3.2  c-3.5,2.7-5.5,7-5.3,11.4v20.5h6.4V27.6c0-6.5,5.5-8.2,8.4-8.2c2.5,0,7.6,1.9,7.6,7.6v21.1h6.4V27.6c0-6.5,5.5-8.2,8.4-8.2  c2.5,0,7.6,1.9,7.6,7.6v21.1h6.4V27c0.1-7.7-6.1-14-13.8-14C369,13,368.9,13,368.8,13z"></path>
<path class="st0" d="M45.1,0C38.4,0,32.7,5.1,32,11.8c-5.7-4.5-13.9-3.6-18.5,2.1c-1.4,1.7-2.3,3.8-2.7,6C4.6,21.1,0,26.5,0,32.9V44  c0,6.6,6.2,12.3,13.2,12.3c4.2,0,8.2-2,10.6-5.4c4.3,5.9,12.5,7.2,18.4,3c2.6-1.9,4.4-4.6,5.1-7.7c6.3-1.1,11-6.5,11-13v-20  C58.3,5.9,52.4,0,45.1,0z M53.2,33.1c0,3.5-2.3,6.6-5.6,7.7V12c0-1.4-1.1-2.5-2.5-2.5c-1.4,0-2.5,1.1-2.5,2.5c0,0,0,0,0,0v31.1  c0,4.5-3.6,8.1-8.1,8.1c-4.5,0-8.1-3.6-8.1-8.1c0,0,0,0,0,0V21.1c0-1.4-1.1-2.5-2.5-2.5s-2.5,1.1-2.5,2.5c0,0,0,0,0,0v22.1  c0,4.5-3.6,8.1-8.1,8.1c-4.5,0-8.1-3.6-8.1-8.1V32.9c0-3.5,2.3-6.6,5.6-7.7v18.6c0,1.4,1.1,2.5,2.5,2.5c1.4,0,2.5-1.1,2.5-2.5  c0,0,0,0,0,0V22.1c0-4.5,3.6-8.1,8.1-8.1c4.5,0,8.1,3.6,8.1,8.1v21.7c0,1.4,1.1,2.5,2.5,2.5c1.4,0,2.5-1.1,2.5-2.5c0,0,0,0,0,0V13.2  c0-4.5,3.6-8.1,8.1-8.1c4.5,0,8.1,3.6,8.1,8.1c0,0,0,0,0,0V33.1z"></path>
<path class="st0" d="M158.2,33.2c0.3,6.9,6.3,10.3,11.4,10.3c4.1,0.2,7.9-2.1,9.8-5.7h6.7c-1.4,3.4-3.8,6.4-6.9,8.4  c-2.9,1.9-6.2,2.9-9.7,2.9c-9.8,0.1-17.8-7.7-18-17.5c0-0.1,0-0.3,0-0.4c0-9.9,8-18,18-18c4.6,0,9.1,1.8,12.5,5  c3.9,4,5.8,9.5,5.1,15L158.2,33.2z M180.8,28.1c-0.3-4.5-4.8-9.5-11.2-9.4c-6.6,0-10.9,4.8-11.2,9.4H180.8z"></path>
<path class="st0" d="M193.5,2h6.5v17.6c2.9-4,7.5-6.4,12.5-6.4c8.8,0,17.2,6.5,17.2,17.8c0,10.9-7.7,18.1-17.5,18.1  c-5.8,0-10.3-2.8-12.5-6.9v5.9h-6.2L193.5,2z M223.2,31.1c0.1-6.5-5.1-11.8-11.6-11.8s-11.8,5.1-11.8,11.6c0,0.1,0,0.2,0,0.3  c0,6.5,4.6,12,11.5,12C219,43,223.1,37,223.2,31.1L223.2,31.1z"></path>
<path class="st0" d="M236.2,2h6.5v46.1h-6.5V2z"></path>
<path class="st0" d="M249.2,31.1c-0.2-9.7,7.6-17.7,17.3-17.9c0.3,0,0.5,0,0.8,0c11.4,0,18.1,8.9,18.1,18c0,9.1-6.7,17.9-18.1,17.9  C255.9,49,249.2,40.2,249.2,31.1L249.2,31.1z M255.7,31.2c-0.1,6.4,5,11.7,11.4,11.8c6.4,0.1,11.7-5,11.8-11.4c0-0.1,0-0.3,0-0.4  c0.1-6.4-4.9-11.7-11.3-11.8c-6.4-0.1-11.7,4.9-11.8,11.3C255.7,30.8,255.7,31,255.7,31.2L255.7,31.2z"></path>
<path class="st0" d="M290,31.1c-0.2-9.7,7.6-17.7,17.3-17.9c0.3,0,0.5,0,0.8,0c11.4,0,18.1,8.9,18.1,18c0,9.1-6.7,17.9-18.1,17.9  S290,40.2,290,31.1L290,31.1z M296.5,31.2c-0.1,6.4,5,11.7,11.4,11.8c6.4,0.1,11.7-5,11.8-11.4c0-0.1,0-0.3,0-0.4  c0.1-6.4-4.9-11.7-11.3-11.8c-6.4-0.1-11.7,4.9-11.8,11.3C296.5,30.8,296.5,31,296.5,31.2L296.5,31.2z"></path>
</svg>
