<?xml version="1.0" encoding="UTF-8"?>
<svg xmlns="http://www.w3.org/2000/svg" id="Calque_2" viewBox="0 0 37.77 37.77">
  <defs>
    <style>.cls-1{fill:#fff;}</style>
  </defs>
  <g id="Calque_1-2">
    <path class="cls-1" d="M10.3,17.17c3.79,0,6.87-3.08,6.87-6.87V1.72c0-.95,.77-1.72,1.72-1.72s1.72,.77,1.72,1.72V10.3c0,3.79,3.08,6.87,6.87,6.87h8.58c.95,0,1.72,.77,1.72,1.72s-.77,1.72-1.72,1.72h-8.58c-3.79,0-6.87,3.08-6.87,6.87v8.58c0,.95-.77,1.72-1.72,1.72s-1.72-.77-1.72-1.72v-8.58c0-3.79-3.08-6.87-6.87-6.87H1.72c-.95,0-1.72-.77-1.72-1.72s.77-1.72,1.72-1.72H10.3Z"></path>
  </g>
</svg>
