<?xml version="1.0" encoding="UTF-8"?>
<svg xmlns="http://www.w3.org/2000/svg" id="Calque_2" viewBox="0 0 54.55 47">
  <defs>
    <style>.cls-1{fill:#ffb4b4;}</style>
  </defs>
  <g id="Calque_1-2">
    <path class="cls-1" d="M27.47,26.4c-3.79,0-6.87-3.08-6.87-6.87V10.95c0-.95-.77-1.72-1.72-1.72s-1.72,.77-1.72,1.72v8.58c0,3.79-3.08,6.87-6.87,6.87H1.72c-.95,0-1.72,.77-1.72,1.72s.77,1.72,1.72,1.72H10.3c3.79,0,6.87,3.08,6.87,6.87v8.58c0,.95,.77,1.72,1.72,1.72s1.72-.77,1.72-1.72v-8.58c0-3.79,3.08-6.87,6.87-6.87h8.58c.95,0,1.72-.77,1.72-1.72s-.77-1.72-1.72-1.72h-8.58Z"></path>
    <path class="cls-1" d="M49.52,8.39c-1.85,0-3.36-1.5-3.36-3.36V.84c0-.46-.37-.84-.84-.84s-.84,.37-.84,.84V5.04c0,1.85-1.5,3.36-3.36,3.36h-4.2c-.46,0-.84,.38-.84,.84s.37,.84,.84,.84h4.2c1.85,0,3.36,1.5,3.36,3.36v4.2c0,.46,.37,.84,.84,.84s.84-.37,.84-.84v-4.2c0-1.85,1.5-3.36,3.36-3.36h4.2c.46,0,.84-.38,.84-.84s-.37-.84-.84-.84h-4.2Z"></path>
  </g>
</svg>
