<?xml version="1.0" encoding="UTF-8"?>
<!-- Generator: Adobe Illustrator 26.3.0, SVG Export Plug-In . SVG Version: 6.00 Build 0)  -->
<svg xmlns="http://www.w3.org/2000/svg" xmlns:xlink="http://www.w3.org/1999/xlink" version="1.1" id="Calque_1" x="0px" y="0px" viewBox="0 0 56 47" style="enable-background:new 0 0 56 47;" xml:space="preserve">
<style type="text/css">
	.st0{fill:#FFFFFF;}
</style>
<path class="st0" d="M27.6,26.4c3.8,0,6.9-3.1,6.9-6.9v-8.6c0-0.9,0.8-1.7,1.7-1.7s1.7,0.8,1.7,1.7v8.6c0,3.8,3.1,6.9,6.9,6.9h8.6  c0.9,0,1.7,0.8,1.7,1.7c0,0.9-0.8,1.7-1.7,1.7h-8.6c-3.8,0-6.9,3.1-6.9,6.9v8.6c0,0.9-0.8,1.7-1.7,1.7s-1.7-0.8-1.7-1.7v-8.6  c0-3.8-3.1-6.9-6.9-6.9H19c-0.9,0-1.7-0.8-1.7-1.7c0-0.9,0.8-1.7,1.7-1.7H27.6z"></path>
<path class="st0" d="M5.5,8.4c1.9,0,3.4-1.5,3.4-3.4V0.8C8.9,0.4,9.3,0,9.7,0c0.5,0,0.8,0.4,0.8,0.8V5c0,1.9,1.5,3.4,3.4,3.4h4.2  c0.5,0,0.8,0.4,0.8,0.8c0,0.5-0.4,0.8-0.8,0.8h-4.2c-1.9,0-3.4,1.5-3.4,3.4v4.2c0,0.5-0.4,0.8-0.8,0.8c-0.5,0-0.8-0.4-0.8-0.8v-4.2  c0-1.9-1.5-3.4-3.4-3.4H1.3c-0.5,0-0.8-0.4-0.8-0.8c0-0.5,0.4-0.8,0.8-0.8H5.5z"></path>
</svg>
